<svg width="21" height="20" viewBox="0 0 21 20" fill="none" xmlns="http://www.w3.org/2000/svg">
<path fill-rule="evenodd" clip-rule="evenodd" d="M10.5001 0.46875C5.10734 0.46875 0.734375 4.8409 0.734375 10.2345C0.734375 14.5492 3.53255 18.2098 7.41276 19.5011C7.90082 19.5915 8.08 19.2893 8.08 19.0313C8.08 18.7985 8.07094 18.0292 8.06674 17.2131C5.34991 17.8039 4.77663 16.0609 4.77663 16.0609C4.33239 14.9321 3.69232 14.632 3.69232 14.632C2.80628 14.0259 3.75911 14.0383 3.75911 14.0383C4.73976 14.1072 5.25612 15.0447 5.25612 15.0447C6.12712 16.5377 7.54068 16.106 8.09795 15.8565C8.1856 15.2253 8.43869 14.7945 8.71797 14.5507C6.54887 14.3037 4.26868 13.4663 4.26868 9.7244C4.26868 8.65821 4.65017 7.78705 5.27488 7.10315C5.17348 6.85718 4.83921 5.86392 5.36948 4.51877C5.36948 4.51877 6.18954 4.2563 8.05574 5.51979C8.83473 5.30341 9.67015 5.1949 10.5001 5.19118C11.33 5.1949 12.1661 5.30341 12.9465 5.51979C14.8105 4.2563 15.6294 4.51877 15.6294 4.51877C16.1609 5.86392 15.8265 6.85718 15.7251 7.10315C16.3513 7.78705 16.7302 8.65821 16.7302 9.7244C16.7302 13.4752 14.4456 14.3011 12.271 14.5429C12.6213 14.8459 12.9334 15.4403 12.9334 16.3514C12.9334 17.658 12.9221 18.7097 12.9221 19.0313C12.9221 19.2912 13.0979 19.5957 13.5929 19.4998C17.471 18.2071 20.2656 14.5477 20.2656 10.2345C20.2656 4.8409 15.8933 0.46875 10.5001 0.46875ZM4.39195 14.3802C4.37044 14.4287 4.29411 14.4433 4.22457 14.41C4.15374 14.3781 4.11396 14.312 4.13692 14.2633C4.15795 14.2133 4.23444 14.1994 4.30511 14.2329C4.3761 14.2647 4.41653 14.3315 4.39195 14.3802ZM4.87231 14.8088C4.82574 14.852 4.73469 14.832 4.67292 14.7637C4.60904 14.6956 4.59707 14.6046 4.64429 14.5608C4.69232 14.5176 4.78062 14.5378 4.84466 14.6059C4.90854 14.6748 4.92099 14.7652 4.87231 14.8088ZM5.20186 15.3572C5.14203 15.3988 5.04419 15.3598 4.98371 15.273C4.92387 15.1861 4.92387 15.082 4.985 15.0403C5.04564 14.9985 5.14203 15.0361 5.20332 15.1223C5.26299 15.2106 5.26299 15.3147 5.20186 15.3572ZM5.7592 15.9924C5.70567 16.0514 5.59166 16.0355 5.50821 15.955C5.42283 15.8763 5.39906 15.7645 5.45275 15.7055C5.50692 15.6463 5.62158 15.663 5.70567 15.7428C5.79041 15.8214 5.81628 15.934 5.7592 15.9924ZM6.4795 16.2068C6.45589 16.2833 6.34608 16.318 6.23547 16.2855C6.12502 16.2521 6.05273 16.1625 6.07505 16.0852C6.09801 16.0082 6.2083 15.972 6.31973 16.0067C6.43002 16.0401 6.50246 16.129 6.4795 16.2068ZM7.29924 16.2977C7.30198 16.3783 7.20819 16.4451 7.09208 16.4465C6.97532 16.4491 6.88088 16.3839 6.87958 16.3047C6.87958 16.2233 6.97128 16.1572 7.08803 16.1553C7.20415 16.153 7.29924 16.2177 7.29924 16.2977ZM8.10453 16.2669C8.11844 16.3455 8.03775 16.4262 7.92244 16.4477C7.80908 16.4684 7.70412 16.4198 7.68973 16.3419C7.67566 16.2614 7.75781 16.1807 7.87102 16.1598C7.98648 16.1398 8.08982 16.187 8.10453 16.2669Z" fill="#111111"/>
</svg>
