<svg width="21" height="20" viewBox="0 0 21 20" fill="none" xmlns="http://www.w3.org/2000/svg">
<g clip-path="url(#clip0_529_1234)">
<path d="M20.305 10.2305C20.305 9.55068 20.2499 8.86724 20.1323 8.19849H10.7V12.0493H16.1014C15.8773 13.2913 15.1571 14.3899 14.1025 15.0881V17.5867H17.325C19.2173 15.845 20.305 13.2729 20.305 10.2305Z" fill="#4285F4"/>
<path d="M10.6999 20.0008C13.397 20.0008 15.6714 19.1152 17.3286 17.5867L14.1061 15.088C13.2096 15.698 12.0521 16.0434 10.7036 16.0434C8.09474 16.0434 5.88272 14.2833 5.08904 11.917H1.76367V14.4928C3.46127 17.8696 6.91892 20.0008 10.6999 20.0008V20.0008Z" fill="#34A853"/>
<path d="M5.0854 11.917C4.66651 10.675 4.66651 9.3302 5.0854 8.08824V5.51245H1.7637C0.345367 8.3381 0.345367 11.6671 1.7637 14.4928L5.0854 11.917V11.917Z" fill="#FBBC04"/>
<path d="M10.6999 3.95805C12.1256 3.936 13.5035 4.47247 14.536 5.45722L17.3911 2.60218C15.5833 0.904587 13.1838 -0.0287217 10.6999 0.000673888C6.91892 0.000673888 3.46126 2.13185 1.76367 5.51234L5.08537 8.08813C5.87537 5.71811 8.09106 3.95805 10.6999 3.95805V3.95805Z" fill="#EA4335"/>
</g>
<defs>
<clipPath id="clip0_529_1234">
<rect width="20" height="20" fill="white" transform="translate(0.5)"/>
</clipPath>
</defs>
</svg>
