<svg width="127" height="30" viewBox="0 0 127 30" fill="none" xmlns="http://www.w3.org/2000/svg">
<path fill-rule="evenodd" clip-rule="evenodd" d="M13.9998 5V10.0001H13.9998V14.9996H18.9997V10.0001H18.9999L18.9997 9.99993V9.99969H18.9995L13.9998 5ZM8.99988 5.00014H13.9998V10H8.9999V10.0004H4V5.00046H8.99988V5.00014ZM18.9997 14.9999H13.9998V19.9999H18.9997V14.9999ZM8.99988 20.0001H13.9998V25H8.99988V20.0001ZM8.99988 14.9999H3.99997V19.9999H8.99988V14.9999ZM13.9998 20.0001H18.9997L13.9998 25V20.0001Z" fill="white"/>
<path d="M34.144 23.74C33.344 23.74 32.632 23.612 32.008 23.356C31.384 23.084 30.856 22.7 30.424 22.204C29.992 21.692 29.664 21.092 29.44 20.404C29.216 19.7 29.08 18.924 29.032 18.076C29.016 17.772 29.008 17.5 29.008 17.26C29.008 17.004 29.016 16.732 29.032 16.444C29.064 15.612 29.192 14.852 29.416 14.164C29.656 13.476 29.984 12.884 30.4 12.388C30.832 11.876 31.36 11.484 31.984 11.212C32.624 10.924 33.344 10.78 34.144 10.78C34.976 10.78 35.688 10.924 36.28 11.212C36.872 11.484 37.36 11.844 37.744 12.292V7.06C37.744 6.884 37.8 6.74 37.912 6.628C38.024 6.516 38.168 6.46 38.344 6.46H40.816C40.976 6.46 41.112 6.516 41.224 6.628C41.336 6.74 41.392 6.884 41.392 7.06V22.9C41.392 23.076 41.336 23.22 41.224 23.332C41.112 23.444 40.976 23.5 40.816 23.5H38.512C38.352 23.5 38.216 23.444 38.104 23.332C37.992 23.22 37.936 23.076 37.936 22.9V22.084C37.536 22.564 37.032 22.964 36.424 23.284C35.816 23.588 35.056 23.74 34.144 23.74ZM35.248 20.86C35.84 20.86 36.312 20.724 36.664 20.452C37.032 20.18 37.296 19.836 37.456 19.42C37.632 19.004 37.728 18.556 37.744 18.076C37.776 17.772 37.792 17.468 37.792 17.164C37.792 16.86 37.776 16.564 37.744 16.276C37.728 15.828 37.632 15.412 37.456 15.028C37.28 14.628 37.008 14.3 36.64 14.044C36.288 13.788 35.824 13.66 35.248 13.66C34.64 13.66 34.16 13.796 33.808 14.068C33.456 14.324 33.2 14.668 33.04 15.1C32.896 15.532 32.808 16.004 32.776 16.516C32.728 17.012 32.728 17.508 32.776 18.004C32.808 18.516 32.896 18.988 33.04 19.42C33.2 19.852 33.456 20.204 33.808 20.476C34.16 20.732 34.64 20.86 35.248 20.86ZM50.0097 23.74C48.1697 23.74 46.7057 23.228 45.6177 22.204C44.5457 21.18 43.9777 19.692 43.9137 17.74C43.9137 17.612 43.9137 17.444 43.9137 17.236C43.9137 17.012 43.9137 16.836 43.9137 16.708C43.9777 15.476 44.2577 14.42 44.7537 13.54C45.2497 12.644 45.9457 11.964 46.8417 11.5C47.7377 11.02 48.7857 10.78 49.9857 10.78C51.3297 10.78 52.4497 11.06 53.3457 11.62C54.2577 12.164 54.9377 12.916 55.3857 13.876C55.8497 14.82 56.0817 15.908 56.0817 17.14V17.692C56.0817 17.852 56.0177 17.988 55.8897 18.1C55.7777 18.212 55.6417 18.268 55.4817 18.268H47.6337C47.6337 18.284 47.6337 18.316 47.6337 18.364C47.6337 18.396 47.6337 18.428 47.6337 18.46C47.6497 18.972 47.7457 19.444 47.9217 19.876C48.1137 20.292 48.3777 20.628 48.7137 20.884C49.0657 21.14 49.4817 21.268 49.9617 21.268C50.3617 21.268 50.6897 21.212 50.9457 21.1C51.2017 20.988 51.4097 20.852 51.5697 20.692C51.7457 20.532 51.8737 20.396 51.9537 20.284C52.0977 20.124 52.2097 20.028 52.2897 19.996C52.3857 19.948 52.5297 19.924 52.7217 19.924H55.2177C55.3777 19.924 55.5057 19.972 55.6017 20.068C55.7137 20.148 55.7617 20.268 55.7457 20.428C55.7297 20.684 55.5937 21.004 55.3377 21.388C55.0977 21.756 54.7377 22.124 54.2577 22.492C53.7777 22.844 53.1777 23.14 52.4577 23.38C51.7537 23.62 50.9377 23.74 50.0097 23.74ZM47.6337 16.084H52.3377V16.036C52.3377 15.46 52.2417 14.964 52.0497 14.548C51.8737 14.116 51.6097 13.78 51.2577 13.54C50.9057 13.3 50.4817 13.18 49.9857 13.18C49.4897 13.18 49.0657 13.3 48.7137 13.54C48.3617 13.78 48.0897 14.116 47.8977 14.548C47.7217 14.964 47.6337 15.46 47.6337 16.036V16.084ZM62.428 23.5C62.188 23.5 62.004 23.444 61.876 23.332C61.764 23.204 61.668 23.06 61.588 22.9L57.076 11.764C57.044 11.7 57.028 11.628 57.028 11.548C57.028 11.404 57.076 11.284 57.172 11.188C57.284 11.076 57.412 11.02 57.556 11.02H59.884C60.092 11.02 60.244 11.076 60.34 11.188C60.452 11.3 60.524 11.404 60.556 11.5L63.508 19.42L66.46 11.5C66.508 11.404 66.58 11.3 66.676 11.188C66.788 11.076 66.94 11.02 67.132 11.02H69.46C69.604 11.02 69.724 11.076 69.82 11.188C69.932 11.284 69.988 11.404 69.988 11.548C69.988 11.628 69.98 11.7 69.964 11.764L65.428 22.9C65.364 23.06 65.268 23.204 65.14 23.332C65.012 23.444 64.828 23.5 64.588 23.5H62.428ZM72.6276 23.5C72.4516 23.5 72.3076 23.444 72.1956 23.332C72.0836 23.22 72.0276 23.076 72.0276 22.9V7.06C72.0276 6.884 72.0836 6.74 72.1956 6.628C72.3076 6.516 72.4516 6.46 72.6276 6.46H75.2196C75.3796 6.46 75.5156 6.516 75.6276 6.628C75.7396 6.74 75.7956 6.884 75.7956 7.06V12.46C76.2276 11.948 76.7556 11.54 77.3796 11.236C78.0036 10.932 78.7556 10.78 79.6356 10.78C80.5796 10.78 81.4116 10.996 82.1316 11.428C82.8676 11.844 83.4436 12.46 83.8596 13.276C84.2756 14.076 84.4836 15.052 84.4836 16.204V22.9C84.4836 23.076 84.4276 23.22 84.3156 23.332C84.2036 23.444 84.0596 23.5 83.8836 23.5H81.2676C81.1076 23.5 80.9716 23.444 80.8596 23.332C80.7476 23.22 80.6916 23.076 80.6916 22.9V16.348C80.6916 15.5 80.4836 14.844 80.0676 14.38C79.6516 13.9 79.0596 13.66 78.2916 13.66C77.5396 13.66 76.9316 13.9 76.4676 14.38C76.0196 14.844 75.7956 15.5 75.7956 16.348V22.9C75.7956 23.076 75.7396 23.22 75.6276 23.332C75.5156 23.444 75.3796 23.5 75.2196 23.5H72.6276ZM91.9398 23.74C91.0118 23.74 90.1878 23.532 89.4678 23.116C88.7638 22.684 88.2118 22.068 87.8118 21.268C87.4278 20.452 87.2358 19.468 87.2358 18.316V11.62C87.2358 11.444 87.2918 11.3 87.4038 11.188C87.5158 11.076 87.6518 11.02 87.8118 11.02H90.3558C90.5318 11.02 90.6758 11.076 90.7878 11.188C90.8998 11.3 90.9558 11.444 90.9558 11.62V18.172C90.9558 19.964 91.7398 20.86 93.3078 20.86C94.0598 20.86 94.6518 20.628 95.0838 20.164C95.5318 19.684 95.7558 19.02 95.7558 18.172V11.62C95.7558 11.444 95.8118 11.3 95.9238 11.188C96.0358 11.076 96.1798 11.02 96.3558 11.02H98.8998C99.0598 11.02 99.1958 11.076 99.3078 11.188C99.4198 11.3 99.4758 11.444 99.4758 11.62V22.9C99.4758 23.076 99.4198 23.22 99.3078 23.332C99.1958 23.444 99.0598 23.5 98.8998 23.5H96.5478C96.3718 23.5 96.2278 23.444 96.1158 23.332C96.0038 23.22 95.9478 23.076 95.9478 22.9V21.964C95.5318 22.54 94.9958 22.98 94.3398 23.284C93.6838 23.588 92.8838 23.74 91.9398 23.74ZM103.072 23.5C102.912 23.5 102.776 23.444 102.664 23.332C102.552 23.22 102.496 23.076 102.496 22.9V11.62C102.496 11.444 102.552 11.3 102.664 11.188C102.776 11.076 102.912 11.02 103.072 11.02H105.424C105.6 11.02 105.744 11.076 105.856 11.188C105.968 11.3 106.024 11.444 106.024 11.62V12.556C106.44 12.044 106.976 11.62 107.632 11.284C108.288 10.948 109.088 10.78 110.032 10.78C110.976 10.78 111.8 10.996 112.504 11.428C113.224 11.844 113.784 12.46 114.184 13.276C114.6 14.076 114.808 15.052 114.808 16.204V22.9C114.808 23.076 114.744 23.22 114.616 23.332C114.504 23.444 114.368 23.5 114.208 23.5H111.664C111.488 23.5 111.344 23.444 111.232 23.332C111.12 23.22 111.064 23.076 111.064 22.9V16.348C111.064 15.5 110.856 14.844 110.44 14.38C110.04 13.9 109.448 13.66 108.664 13.66C107.912 13.66 107.312 13.9 106.864 14.38C106.416 14.844 106.192 15.5 106.192 16.348V22.9C106.192 23.076 106.136 23.22 106.024 23.332C105.912 23.444 105.776 23.5 105.616 23.5H103.072ZM123.543 23.5C122.551 23.5 121.703 23.34 120.999 23.02C120.295 22.684 119.759 22.172 119.391 21.484C119.039 20.796 118.863 19.932 118.863 18.892V13.852H116.991C116.815 13.852 116.671 13.796 116.559 13.684C116.447 13.572 116.391 13.428 116.391 13.252V11.62C116.391 11.444 116.447 11.3 116.559 11.188C116.671 11.076 116.815 11.02 116.991 11.02H118.863V7.06C118.863 6.884 118.919 6.74 119.031 6.628C119.159 6.516 119.303 6.46 119.463 6.46H121.815C121.991 6.46 122.135 6.516 122.247 6.628C122.359 6.74 122.415 6.884 122.415 7.06V11.02H125.415C125.575 11.02 125.711 11.076 125.823 11.188C125.935 11.3 125.991 11.444 125.991 11.62V13.252C125.991 13.428 125.935 13.572 125.823 13.684C125.711 13.796 125.575 13.852 125.415 13.852H122.415V18.604C122.415 19.212 122.519 19.692 122.727 20.044C122.951 20.38 123.335 20.548 123.879 20.548H125.631C125.791 20.548 125.927 20.604 126.039 20.716C126.151 20.828 126.207 20.964 126.207 21.124V22.9C126.207 23.076 126.151 23.22 126.039 23.332C125.927 23.444 125.791 23.5 125.631 23.5H123.543Z" fill="white"/>
</svg>
